<?xml version="1.0" encoding="iso-8859-1"?>
<!-- Generator: Adobe Illustrator 16.0.0, SVG Export Plug-In . SVG Version: 6.00 Build 0)  -->
<!DOCTYPE svg PUBLIC "-//W3C//DTD SVG 1.1//EN" "http://www.w3.org/Graphics/SVG/1.1/DTD/svg11.dtd">
<svg version="1.1" id="Capa_1" xmlns="http://www.w3.org/2000/svg" xmlns:xlink="http://www.w3.org/1999/xlink" x="0px" y="0px"
	 width="65" height="65" viewBox="0 0 611.985 611.985" style="enable-background:new 0 0 611.985 611.985;" fill="white"
	 xml:space="preserve">
<g>
	<g>
		<g>
			<g>
				<path d="M47.813,363.283c-5.259,0-9.522-4.265-9.522-9.521c0-5.26,4.263-9.522,9.522-9.522l47.114,0.08l79.485-92.375
					c3.427-4.004,9.443-4.462,13.447-1.036c0.637,0.538,1.175,1.155,1.633,1.812L258.54,339l145.465-163.693
					c3.506-3.944,9.542-4.283,13.486-0.797l0.775,0.797l87.076,86.976l31.794-47.691c2.93-4.363,8.846-5.538,13.229-2.61
					c4.362,2.929,5.539,8.845,2.609,13.228l-37.989,56.995c-0.378,0.618-0.837,1.215-1.396,1.753
					c-3.705,3.725-9.761,3.745-13.486,0.04l-88.529-88.451L265.333,360.096l-0.02-0.02c-0.359,0.397-0.757,0.758-1.175,1.115
					c-4.104,3.268-10.1,2.608-13.367-1.494l-69.346-86.657l-74.844,86.997l-0.02-0.021c-1.773,2.072-4.363,3.349-7.251,3.349
					L47.813,363.283L47.813,363.283z M417.85,174.888l0.398,0.398L417.85,174.888z"/>
			</g>
			<path d="M296.47,57.353c5.279,0,9.562,4.283,9.562,9.563c0,5.279-4.283,9.562-9.562,9.562H19.127v344.397h573.731V76.478h-258.2
				c-5.278,0-9.562-4.283-9.562-9.562c0-5.279,4.283-9.563,9.562-9.563H602.18h0.239c5.279,0,9.563,4.283,9.563,9.563V430.2v0.237
				c0,5.279-4.283,9.563-9.563,9.563H9.823H9.564c-5.279-0.001-9.562-4.284-9.562-9.563V67.174v-0.259
				c0-5.279,4.283-9.563,9.562-9.563L296.47,57.353L296.47,57.353z"/>
			<path d="M286.888,9.522c0-5.259,4.283-9.522,9.522-9.522c5.259,0,9.522,4.263,9.522,9.522l0.02,57.374
				c0,5.259-4.263,9.522-9.522,9.522c-5.259,0-9.522-4.263-9.522-9.522L286.888,9.522z"/>
			<path d="M286.927,468.527c0-5.261,4.263-9.523,9.522-9.523c5.259,0,9.522,4.264,9.522,9.523l-0.04,95.682
				c0,5.238-4.263,9.521-9.522,9.521c-5.259,0-9.522-4.263-9.522-9.521L286.927,468.527z"/>
			<path d="M153.356,465.918c1.435-5.08,6.713-8.008,11.793-6.574c5.06,1.435,8.008,6.713,6.574,11.793l-38.169,133.91
				c-1.434,5.08-6.713,8.01-11.793,6.574c-5.06-1.434-8.008-6.713-6.574-11.793L153.356,465.918z"/>
			<path d="M421.137,471.137c-1.435-5.08,1.494-10.358,6.574-11.793c5.08-1.436,10.358,1.494,11.793,6.574l38.229,133.91
				c1.435,5.061-1.493,10.359-6.573,11.793c-5.062,1.436-10.359-1.494-11.794-6.574L421.137,471.137z"/>
			<path d="M9.564,478.27c-5.279,0-9.562-4.282-9.562-9.562s4.283-9.562,9.562-9.562H602.42c5.279,0,9.563,4.282,9.563,9.562
				c0,5.258-4.283,9.562-9.563,9.562H9.564z"/>
		</g>
	</g>
</g>
<g>
</g>
<g>
</g>
<g>
</g>
<g>
</g>
<g>
</g>
<g>
</g>
<g>
</g>
<g>
</g>
<g>
</g>
<g>
</g>
<g>
</g>
<g>
</g>
<g>
</g>
<g>
</g>
<g>
</g>
</svg>
