<svg width="70" height="70" viewBox="0 0 70 70" fill="none" xmlns="http://www.w3.org/2000/svg">
<path id="Vector" d="M61.25 10H54.6875L52.5 5C51.2115 2.08993 50.5422 0 48.125 0H21.875C19.4578 0 18.6593 2.38497 17.5 5L15.3125 10H8.75C3.91783 10 0 14.4775 0 20V60C0 65.5225 3.91783 70 8.75 70H61.25C66.0822 70 70 65.5225 70 60V20C70 14.4775 66.0822 10 61.25 10ZM65.625 60C65.625 62.7625 63.6672 65 61.25 65H8.75C6.33283 65 4.375 62.7625 4.375 60V20C4.375 17.24 6.33283 15 8.75 15H17.5L19.6875 10C21.234 7.09255 21.6453 5 24.0625 5H45.9375C48.3547 5 48.766 7.08993 50.3125 10L52.5 15H61.25C63.6672 15 65.625 17.2375 65.625 20V60ZM35 20C25.3357 20 17.5 28.955 17.5 40C17.5 51.045 25.3357 60 35 60C44.6643 60 52.5 51.045 52.5 40C52.5 28.955 44.6643 20 35 20ZM35 55C27.7507 55 21.875 48.285 21.875 40C21.875 31.715 27.7507 25 35 25C42.2493 25 48.125 31.715 48.125 40C48.125 48.285 42.2493 55 35 55Z" fill="white"/>
</svg>
