<svg width="45" height="28" viewBox="0 0 45 28" fill="none" xmlns="http://www.w3.org/2000/svg">
<path d="M22.523 0.986084C10.1211 0.986084 0 11.1661 0 23.688C0 24.6439 0.0475111 25.6475 0.142545 26.6512L0.237585 27.7027H43.6681H44.7134L44.8084 26.6512C44.9035 25.6953 44.9985 24.7395 44.9985 23.7358C45.1411 11.1661 34.9725 0.986084 22.523 0.986084ZM21.4776 23.927L22.523 17.8094L23.6159 23.9748C23.5684 24.5483 23.0932 24.9784 22.523 24.9784C21.9528 24.9784 21.5252 24.5005 21.4776 23.927ZM42.6702 25.2652H25.7542C25.8967 24.8828 26.0393 24.5005 26.0393 24.1181V23.8792L24.3287 14.0815C24.1386 13.2212 23.3783 12.5999 22.4755 12.6477C21.6202 12.6955 20.9074 13.3168 20.8124 14.1293L19.1493 23.6402V23.927C19.1493 24.4049 19.2444 24.8828 19.4344 25.2652H2.47089C2.42337 24.7395 2.42335 24.1659 2.42335 23.6402C2.42335 12.4565 11.4516 3.32796 22.5705 3.32796C33.6895 3.32796 42.7652 12.4565 42.7652 23.6402C42.7652 24.2137 42.7177 24.7395 42.6702 25.2652Z" fill="white"/>
</svg>
