<svg width="20" height="20" viewBox="0 0 20 20" fill="none" xmlns="http://www.w3.org/2000/svg">
<g clip-path="url(#clip0_421_260)">
<path d="M10 0C4.5 0 0 4.5 0 10C0 15.5 4.5 20 10 20C15.5 20 20 15.5 20 10C20 4.5 15.5 0 10 0ZM16.5 6.625C17 6.625 17.375 7 17.875 7C17.5 7.5 15.875 7.5 15.375 6.875C15.75 6.75 16 6.625 16.5 6.625ZM1.25 10C1.25 9.5 1.25 9 1.375 8.375C1.5 8.375 1.625 8.5 1.75 8.5C1.75 8.5 1.875 8.625 1.875 8.75C1.875 9.125 2.25 9.375 2.5 9.375C3.5 9.5 3.875 10.375 4.75 10.625C5 10.75 4.875 11 4.75 11.25C4 12.25 4.625 13 5.25 13.625C5.875 14.125 5.875 14.625 6 15.375C6 16.25 6.125 17.25 6.5 18.125C3.375 16.625 1.25 13.625 1.25 10ZM10 18.75C9.125 18.75 8.125 18.625 7.375 18.375C7.25 18.125 7.25 17.875 7.375 17.625C7.875 16.625 8.375 15.75 9 14.875C9.25 14.625 9.5 14.375 9.5 14C9.5 13.75 9.625 13.375 9.75 13.125C10.125 12.5 10 12.125 9.5 12C8.5 11.75 8 10.875 7.25 10.5C6.5 10.125 5.75 9.875 5.125 10.25C4.875 10.375 4.5 10.5 4.5 10.125C4.5 9.625 3.875 9.25 4 8.75C3.875 8.75 3.75 8.75 3.625 8.875C3.5 9 3.375 9.125 3.125 9C2.875 8.75 3 8.5 3 8.25C3.125 8 3.25 7.875 3.5 7.75C4 7.625 4.5 7.625 4.75 8.25C5.125 7.125 5.875 6.5 6.625 6C6.625 6 7.625 5.125 7.75 5.125C7.875 5.125 8 5.375 8.25 5.5C8.5 5.5 8.625 5.5 8.625 5.25C8.75 4.625 8.375 3.875 7.875 3.75C7.875 3.625 8 3.625 8 3.625C8.375 3.5 8.875 3.25 8.75 2.875C8.75 2.375 8.25 2.125 7.75 2.125C7.5 2.125 7.25 2.125 7 2.25C6.5 2.5 5.875 2.75 5.125 2.75C6.5 1.75 8.25 1.25 10 1.25C10.375 1.25 10.625 1.25 11 1.25C10.25 1.375 9.5 1.625 9 1.875C9.75 2 9.875 2.375 9.625 3C9.5 3.25 9.625 3.5 9.875 3.625C10.125 3.75 10.375 3.75 10.5 3.5C10.75 3.125 11.25 3 11.625 2.875C12.125 2.75 12.5 2.5 12.875 2C12.875 1.875 13 1.875 13.125 1.75C13.875 2 14.625 2.5 15.375 3C15.25 3 15.25 3.125 15.125 3.125C14.875 3.375 14.5 3.5 14.875 4C15 4.25 14.875 4.375 14.75 4.5C14.5 4.625 14.375 4.5 14.25 4.375C14.125 4.25 14.125 4 13.75 4C13.625 4.25 13.25 4.375 13.25 4.75C13.875 4.75 13.75 5.25 13.875 5.625C13.125 5.75 12.875 6.125 13.25 6.75C13.375 7 13.125 7.125 13 7.25C12.5 8 12 8.5 12 9.375C12 10.25 12.625 11.125 13.625 11C14.75 10.875 14.75 10.875 15.125 11.875C15.125 12 15.25 12.125 15.25 12.25C15.375 12.5 15.5 12.75 15.375 13C15 14 15.5 14.75 15.875 15.5C16 15.75 16.125 15.875 16.25 16C14.625 17.75 12.5 18.75 10 18.75Z" fill="white"/>
</g>
<defs>
<clipPath id="clip0_421_260">
<rect width="20" height="20" fill="white"/>
</clipPath>
</defs>
</svg>
