<svg width="48" height="47" viewBox="0 0 48 47" fill="none" xmlns="http://www.w3.org/2000/svg">
<g filter="url(#filter0_d_177_908)">
<path d="M40.8386 6.91328C38.9795 4.86778 36.4109 3.84546 33.1317 3.84546C32.2243 3.84546 31.2981 4.02275 30.3542 4.37715C29.4099 4.73182 28.5314 5.21031 27.7198 5.81228C26.9071 6.41408 26.2086 6.97922 25.6227 7.50684C25.0375 8.03464 24.4811 8.59553 23.9542 9.1891C23.4271 8.59553 22.8709 8.03464 22.2855 7.50684C21.6999 6.97922 21.0011 6.41442 20.1885 5.81228C19.3761 5.21005 18.4978 4.73191 17.5537 4.37715C16.6098 4.02284 15.6838 3.84546 14.7763 3.84546C11.4974 3.84546 8.92862 4.86804 7.0697 6.91328C5.21078 8.95835 4.28125 11.795 4.28125 15.4234C4.28125 16.5285 4.45351 17.6669 4.79735 18.8373C5.14119 20.0084 5.53301 21.0063 5.97205 21.8308C6.41102 22.6552 6.90882 23.4592 7.46506 24.2427C8.02131 25.0261 8.42782 25.566 8.68368 25.8629C8.93977 26.1598 9.1411 26.3744 9.28745 26.5065L22.9881 41.3997C23.2516 41.6966 23.5736 41.8455 23.9541 41.8455C24.3346 41.8455 24.6569 41.6966 24.9203 41.3997L38.5991 26.5554C41.9512 22.7791 43.6271 19.0682 43.6271 15.4231C43.6272 11.7944 42.6977 8.958 40.8386 6.91328ZM36.6888 24.2303L23.9542 38.0596L11.1978 24.2053C8.4605 21.1218 7.09208 18.194 7.09208 15.4231C7.09208 14.0874 7.24942 12.9079 7.56396 11.8856C7.87873 10.8631 8.28124 10.0506 8.77158 9.44862C9.26199 8.84648 9.85838 8.3562 10.561 7.97658C11.2639 7.59731 11.9519 7.3416 12.6251 7.20971C13.2983 7.078 14.0154 7.01206 14.7767 7.01206C15.5377 7.01206 16.3576 7.2221 17.2358 7.6428C18.1139 8.06332 18.9226 8.59112 19.6617 9.22601C20.401 9.86134 21.0341 10.455 21.5613 11.0073C22.0881 11.5602 22.5271 12.067 22.8785 12.5288C23.1418 12.8918 23.5007 13.0733 23.9543 13.0733C24.408 13.0733 24.7665 12.8918 25.0302 12.5288C25.3815 12.067 25.8207 11.5599 26.3476 11.0073C26.8745 10.455 27.5077 9.8616 28.2467 9.22601C28.9859 8.59112 29.7947 8.06332 30.6732 7.6428C31.5511 7.22219 32.3712 7.01206 33.1323 7.01206C33.8935 7.01206 34.6104 7.078 35.2839 7.20971C35.9573 7.34151 36.6452 7.59731 37.348 7.97658C38.0506 8.35612 38.647 8.84674 39.1373 9.44862C39.6276 10.0506 40.0303 10.8631 40.3451 11.8856C40.6593 12.9079 40.8166 14.0874 40.8166 15.4231C40.8165 18.194 39.4408 21.13 36.6888 24.2303Z" fill="white"/>
</g>
<defs>
<filter id="filter0_d_177_908" x="0.28125" y="0.845459" width="47.3457" height="46" filterUnits="userSpaceOnUse" color-interpolation-filters="sRGB">
<feFlood flood-opacity="0" result="BackgroundImageFix"/>
<feColorMatrix in="SourceAlpha" type="matrix" values="0 0 0 0 0 0 0 0 0 0 0 0 0 0 0 0 0 0 127 0" result="hardAlpha"/>
<feOffset dy="1"/>
<feGaussianBlur stdDeviation="2"/>
<feComposite in2="hardAlpha" operator="out"/>
<feColorMatrix type="matrix" values="0 0 0 0 1 0 0 0 0 1 0 0 0 0 1 0 0 0 0.25 0"/>
<feBlend mode="normal" in2="BackgroundImageFix" result="effect1_dropShadow_177_908"/>
<feBlend mode="normal" in="SourceGraphic" in2="effect1_dropShadow_177_908" result="shape"/>
</filter>
</defs>
</svg>
