<svg width="53" height="53" viewBox="0 0 53 53" fill="none" xmlns="http://www.w3.org/2000/svg">
<g filter="url(#filter0_d_372_358)">
<path d="M40.346 6.95132H35.081C34.8835 5.20898 32.9694 3.9707 30.9999 3.9707H21.6538C19.3691 3.9707 17.7527 5.42309 17.5693 6.95132H12.6538C7.80762 6.95132 4 9.93193 4 13.7256V40.8225C4 44.6161 7.80762 47.5967 12.6538 47.5967H40.3462C45.1924 47.5967 49 44.6161 49 40.8225V13.7256C48.9998 9.93209 45.1922 6.95132 40.346 6.95132ZM21.3075 7.49337C21.3075 7.22242 21.6536 6.95147 21.9997 6.95147H31.3458C31.6919 6.95147 32.0381 7.22242 32.0381 7.49337V12.0998C32.0381 12.3708 31.6919 12.6418 31.3458 12.6418H21.9997C21.6536 12.6418 21.3075 12.3708 21.3075 12.0998V7.49337ZM45.5381 40.8227C45.5381 42.9904 43.115 44.8872 40.3458 44.8872H12.6536C9.8844 44.8872 7.46129 42.9904 7.46129 40.8227V13.7256C7.46129 11.5578 9.8844 9.66098 12.6536 9.66098H17.4998V11.8287C17.4998 13.7256 19.5768 15.0805 21.6538 15.0805H30.9999C33.423 15.0805 35.1538 13.7256 35.1538 11.8287V9.66114H40.3462C43.1154 9.66114 45.5385 11.5579 45.5385 13.7257L45.5381 40.8227Z" fill="white"/>
<path d="M36.8843 36.7583H16.1151C15.0767 36.7583 14.3843 37.3002 14.3843 38.1132C14.3843 38.9262 15.0765 39.4681 16.1151 39.4681H36.8843C37.9227 39.4681 38.6151 38.9262 38.6151 38.1132C38.6151 37.3002 37.9229 36.7583 36.8843 36.7583Z" fill="white"/>
<path d="M36.8843 28.6296H16.1151C15.0767 28.6296 14.3843 29.1715 14.3843 29.9845C14.3843 30.7974 15.0765 31.3395 16.1151 31.3395H36.8843C37.9227 31.3395 38.6151 30.7976 38.6151 29.9845C38.6151 29.1717 37.9229 28.6296 36.8843 28.6296Z" fill="white"/>
<path d="M36.8843 20.4988H16.1151C15.0767 20.4988 14.3843 21.0407 14.3843 21.8537C14.3843 22.6665 15.0765 23.2086 16.1151 23.2086H36.8843C37.9227 23.2086 38.6151 22.6667 38.6151 21.8537C38.6151 21.0408 37.9229 20.4988 36.8843 20.4988Z" fill="white"/>
</g>
<defs>
<filter id="filter0_d_372_358" x="0" y="0.970703" width="53" height="51.626" filterUnits="userSpaceOnUse" color-interpolation-filters="sRGB">
<feFlood flood-opacity="0" result="BackgroundImageFix"/>
<feColorMatrix in="SourceAlpha" type="matrix" values="0 0 0 0 0 0 0 0 0 0 0 0 0 0 0 0 0 0 127 0" result="hardAlpha"/>
<feOffset dy="1"/>
<feGaussianBlur stdDeviation="2"/>
<feComposite in2="hardAlpha" operator="out"/>
<feColorMatrix type="matrix" values="0 0 0 0 1 0 0 0 0 1 0 0 0 0 1 0 0 0 0.25 0"/>
<feBlend mode="normal" in2="BackgroundImageFix" result="effect1_dropShadow_372_358"/>
<feBlend mode="normal" in="SourceGraphic" in2="effect1_dropShadow_372_358" result="shape"/>
</filter>
</defs>
</svg>
