<svg width="48" height="23" viewBox="0 0 48 23" fill="none" xmlns="http://www.w3.org/2000/svg">
<path d="M0.409219 10.28C1.04922 10.28 1.48922 10.184 1.72922 9.992C1.98522 9.784 2.11322 9.368 2.11322 8.744V3.248C2.11322 2.176 2.31322 1.424 2.71322 0.991999C3.11322 0.543999 3.78522 0.319999 4.72922 0.319999H5.80922V2H5.06522C4.68122 2 4.40122 2.064 4.22522 2.192C4.06522 2.304 3.98522 2.536 3.98522 2.888V8.744C3.98522 9.544 3.78522 10.2 3.38522 10.712C3.00122 11.224 2.52122 11.528 1.94522 11.624C2.52122 11.688 3.00122 11.976 3.38522 12.488C3.78522 13 3.98522 13.656 3.98522 14.456V20.312C3.98522 20.664 4.06522 20.896 4.22522 21.008C4.40122 21.136 4.68122 21.2 5.06522 21.2H5.80922V22.88H4.72922C3.78522 22.88 3.11322 22.656 2.71322 22.208C2.31322 21.776 2.11322 21.024 2.11322 19.952V14.456C2.11322 13.832 1.98522 13.424 1.72922 13.232C1.48922 13.024 1.04922 12.92 0.409219 12.92V10.28ZM22.3246 22.64H20.4286L26.0926 0.559999H27.9886L22.3246 22.64ZM47.6101 12.92C46.9701 12.92 46.5221 13.024 46.2661 13.232C46.0261 13.424 45.9061 13.832 45.9061 14.456V19.952C45.9061 21.024 45.7061 21.776 45.3061 22.208C44.9061 22.656 44.2341 22.88 43.2901 22.88H42.2101V21.2H42.9541C43.3381 21.2 43.6101 21.136 43.7701 21.008C43.9461 20.896 44.0341 20.664 44.0341 20.312V14.456C44.0341 13.656 44.2261 13 44.6101 12.488C45.0101 11.976 45.4981 11.688 46.0741 11.624C45.4981 11.528 45.0101 11.224 44.6101 10.712C44.2261 10.2 44.0341 9.544 44.0341 8.744V2.888C44.0341 2.536 43.9461 2.304 43.7701 2.192C43.6101 2.064 43.3381 2 42.9541 2H42.2101V0.319999H43.2901C44.2341 0.319999 44.9061 0.543999 45.3061 0.991999C45.7061 1.424 45.9061 2.176 45.9061 3.248V8.744C45.9061 9.368 46.0261 9.784 46.2661 9.992C46.5221 10.184 46.9701 10.28 47.6101 10.28V12.92Z" fill="#006AB3"/>
<path d="M18.5099 15.92C18.5099 17.28 18.1339 18.304 17.3819 18.992C16.6459 19.664 15.5819 20 14.1899 20H13.3739C11.9819 20 10.9099 19.664 10.1579 18.992C9.42191 18.304 9.05391 17.28 9.05391 15.92V7.28C9.05391 5.92 9.42191 4.904 10.1579 4.232C10.9099 3.544 11.9819 3.2 13.3739 3.2H14.1899C15.5819 3.2 16.6459 3.544 17.3819 4.232C18.1339 4.904 18.5099 5.92 18.5099 7.28V15.92ZM16.4219 6.824C16.4219 6.328 16.2379 5.904 15.8699 5.552C15.5019 5.2 15.0219 5.024 14.4299 5.024H13.1339C12.5419 5.024 12.0619 5.2 11.6939 5.552C11.3259 5.904 11.1419 6.328 11.1419 6.824V16.376C11.1419 16.872 11.3259 17.296 11.6939 17.648C12.0619 18 12.5419 18.176 13.1339 18.176H14.4299C15.0219 18.176 15.5019 18 15.8699 17.648C16.2379 17.296 16.4219 16.872 16.4219 16.376V6.824ZM38.9373 16.208C38.9373 17.584 38.6173 18.56 37.9773 19.136C37.3533 19.712 36.3133 20 34.8573 20H30.1533V3.2H34.5693C36.0093 3.2 37.0973 3.496 37.8333 4.088C38.5693 4.664 38.9373 5.616 38.9373 6.944V16.208ZM36.8493 6.728C36.8493 6.2 36.6893 5.784 36.3693 5.48C36.0493 5.16 35.6253 5 35.0973 5H32.2413V18.2H35.0733C35.6813 18.2 36.1293 18.064 36.4173 17.792C36.7053 17.504 36.8493 17.056 36.8493 16.448V6.728Z" fill="#030300"/>
</svg>
