<svg width="53" height="53" viewBox="0 0 53 53" fill="none" xmlns="http://www.w3.org/2000/svg">
<g filter="url(#filter0_d_372_347)">
<path d="M47.9226 9.97453H43.6132V5.22635C43.6132 4.91153 43.4997 4.6096 43.2976 4.38698C43.0956 4.16437 42.8216 4.03931 42.5358 4.03931H5.07736C4.79163 4.03931 4.51759 4.16437 4.31555 4.38698C4.11351 4.6096 4 4.91153 4 5.22635V40.5431C4 40.8579 4.11351 41.1598 4.31555 41.3824C4.51759 41.6051 4.79163 41.7301 5.07736 41.7301H9.3868V46.4783C9.3868 46.7931 9.50031 47.0951 9.70235 47.3177C9.9044 47.5403 10.1784 47.6653 10.4642 47.6653H47.9226C48.2084 47.6653 48.4824 47.5403 48.6844 47.3177C48.8865 47.0951 49 46.7931 49 46.4783V11.1616C49 10.8467 48.8865 10.5448 48.6844 10.3222C48.4824 10.0996 48.2084 9.97453 47.9226 9.97453ZM11.5415 45.2913V41.6483H15.851V39.2742H11.5415V18.3656H15.851V15.9915H11.5415V12.3486H46.8453V15.9915H42.2463V18.3656H46.8453V39.2742H42.2463V41.6483H46.8453V45.2913H11.5415Z" fill="white"/>
<path d="M39.6876 15.9915H34.3008V18.3655H39.6876V15.9915Z" fill="white"/>
<path d="M31.7419 15.9915H26.355V18.3655H31.7419V15.9915Z" fill="white"/>
<path d="M23.7965 3.27441H18.4097V5.6485H23.7965V3.27441Z" fill="white"/>
<path d="M39.6876 39.2747H34.3008V41.6487H39.6876V39.2747Z" fill="white"/>
<path d="M31.7419 39.2747H26.355V41.6487H31.7419V39.2747Z" fill="white"/>
<path d="M34.766 28.8189C34.766 28.6116 34.7167 28.408 34.6232 28.2282C34.5296 28.0485 34.3949 27.8988 34.2326 27.7942L27.6593 23.5582C27.4956 23.4527 27.3096 23.3966 27.1199 23.3958C26.9303 23.3949 26.7438 23.4492 26.5793 23.5531C26.4148 23.6571 26.2782 23.807 26.1831 23.9879C26.0881 24.1687 26.038 24.3739 26.038 24.5828V33.0549C26.038 33.2638 26.0881 33.4691 26.1831 33.6499C26.2782 33.8307 26.4148 33.9806 26.5793 34.0846C26.7438 34.1885 26.9303 34.2428 27.1199 34.2419C27.3096 34.2411 27.4956 34.185 27.6593 34.0796L34.2326 29.8435C34.3949 29.7389 34.5296 29.5893 34.6232 29.4095C34.7167 29.2297 34.766 29.0261 34.766 28.8189Z" fill="white"/>
</g>
<defs>
<filter id="filter0_d_372_347" x="0" y="0.274414" width="53" height="52.3909" filterUnits="userSpaceOnUse" color-interpolation-filters="sRGB">
<feFlood flood-opacity="0" result="BackgroundImageFix"/>
<feColorMatrix in="SourceAlpha" type="matrix" values="0 0 0 0 0 0 0 0 0 0 0 0 0 0 0 0 0 0 127 0" result="hardAlpha"/>
<feOffset dy="1"/>
<feGaussianBlur stdDeviation="2"/>
<feComposite in2="hardAlpha" operator="out"/>
<feColorMatrix type="matrix" values="0 0 0 0 1 0 0 0 0 1 0 0 0 0 1 0 0 0 0.25 0"/>
<feBlend mode="normal" in2="BackgroundImageFix" result="effect1_dropShadow_372_347"/>
<feBlend mode="normal" in="SourceGraphic" in2="effect1_dropShadow_372_347" result="shape"/>
</filter>
</defs>
</svg>
