<svg width="36" height="43" viewBox="0 0 36 43" fill="none" xmlns="http://www.w3.org/2000/svg">
<path d="M15.4688 2.76914H19.6875C19.874 2.76914 20.0528 2.6962 20.1847 2.56637C20.3165 2.43653 20.3906 2.26044 20.3906 2.07683C20.3906 1.89322 20.3165 1.71713 20.1847 1.58729C20.0528 1.45746 19.874 1.38452 19.6875 1.38452H15.4688C15.2823 1.38452 15.1034 1.45746 14.9716 1.58729C14.8397 1.71713 14.7656 1.89322 14.7656 2.07683C14.7656 2.26044 14.8397 2.43653 14.9716 2.56637C15.1034 2.6962 15.2823 2.76914 15.4688 2.76914Z" fill="white"/>
<path d="M24.6094 6.23022H10.5469C9.98762 6.23083 9.45145 6.44984 9.056 6.83921C8.66055 7.22858 8.43811 7.7565 8.4375 8.30715V17.3071C8.43811 17.8578 8.66055 18.3857 9.056 18.7751C9.45145 19.1645 9.98762 19.3835 10.5469 19.3841H24.6094C25.1686 19.3835 25.7048 19.1645 26.1003 18.7751C26.4957 18.3857 26.7181 17.8578 26.7188 17.3071V8.30715C26.7181 7.7565 26.4957 7.22858 26.1003 6.83921C25.7048 6.44984 25.1686 6.23083 24.6094 6.23022ZM25.3125 17.3071C25.3123 17.4907 25.2382 17.6667 25.1064 17.7965C24.9746 17.9263 24.7958 17.9993 24.6094 17.9995H10.5469C10.3604 17.9993 10.1817 17.9263 10.0499 17.7965C9.91805 17.6667 9.84392 17.4907 9.84375 17.3071V8.30715C9.84392 8.12359 9.91805 7.94759 10.0499 7.81779C10.1817 7.688 10.3604 7.615 10.5469 7.61484H24.6094C24.7958 7.615 24.9746 7.688 25.1064 7.81779C25.2382 7.94759 25.3123 8.12359 25.3125 8.30715V17.3071Z" fill="white"/>
<path d="M33.0469 10.3843V6.92273C33.0469 6.73912 32.9728 6.56302 32.8409 6.43319C32.7091 6.30336 32.5302 6.23042 32.3438 6.23042C32.1573 6.23042 31.9784 6.30336 31.8466 6.43319C31.7147 6.56302 31.6406 6.73912 31.6406 6.92273V10.3843H30.6338C29.9934 7.44473 28.3486 4.81029 25.9739 2.92048C23.5992 1.03066 20.6381 -0.000244141 17.5848 -0.000244141C14.5314 -0.000244141 11.5703 1.03066 9.19564 2.92048C6.82093 4.81029 5.17618 7.44473 4.53579 10.3843H3.51562V6.92273C3.51562 6.73912 3.44155 6.56302 3.30968 6.43319C3.17782 6.30336 2.99898 6.23042 2.8125 6.23042C2.62602 6.23042 2.44718 6.30336 2.31532 6.43319C2.18345 6.56302 2.10938 6.73912 2.10938 6.92273V10.3843C1.55012 10.3849 1.01395 10.6039 0.6185 10.9932C0.223048 11.3826 0.000614165 11.9105 0 12.4612V13.8458C0.000614165 14.3965 0.223048 14.9244 0.6185 15.3137C1.01395 15.7031 1.55012 15.9221 2.10938 15.9227H4.53262C5.03611 18.2429 6.17144 20.3845 7.81692 22.1178C7.79639 22.1367 7.7708 22.1498 7.75083 22.1693C7.3898 22.5222 7.15006 22.9774 7.06527 23.4713C6.98049 23.9651 7.05492 24.4727 7.27812 24.9227H7.03125C6.21557 24.9246 5.40809 25.0832 4.65412 25.3896C4.19512 25.2422 3.69891 25.2524 3.24654 25.4185C2.79418 25.5846 2.4124 25.8969 2.16359 26.3043C1.9452 26.6746 1.85002 27.1029 1.89141 27.5291C1.11628 28.5833 0.700285 29.8521 0.703125 31.1535V42.2304C0.703125 42.414 0.777204 42.5901 0.909066 42.72C1.04093 42.8498 1.21977 42.9227 1.40625 42.9227H33.75C33.9365 42.9227 34.1153 42.8498 34.2472 42.72C34.379 42.5901 34.4531 42.414 34.4531 42.2304V31.1535C34.4559 29.8521 34.0399 28.5833 33.2648 27.5291C33.3064 27.1042 33.2118 26.6771 32.9944 26.3077C32.746 25.8992 32.3641 25.5858 31.9112 25.419C31.4583 25.2522 30.9613 25.2417 30.5016 25.3893C29.7477 25.0831 28.9405 24.9246 28.125 24.9227H27.8802C28.1099 24.459 28.1804 23.9344 28.0813 23.4278C27.9821 22.9212 27.7186 22.46 27.3304 22.1136C28.9785 20.3813 30.1193 18.242 30.6319 15.9227H33.0469C33.6061 15.9221 34.1423 15.7031 34.5378 15.3137C34.9332 14.9244 35.1556 14.3965 35.1562 13.8458V12.4612C35.1556 11.9105 34.9332 11.3826 34.5378 10.9932C34.1423 10.6039 33.6061 10.3849 33.0469 10.3843ZM4.28829 14.4168C4.29237 14.457 4.29054 14.4979 4.29497 14.5381H2.10938C1.92295 14.5379 1.7442 14.465 1.61238 14.3352C1.48055 14.2054 1.40642 14.0294 1.40625 13.8458V12.4612C1.40642 12.2776 1.48055 12.1016 1.61238 11.9718C1.7442 11.842 1.92295 11.769 2.10938 11.7689H4.29497C4.29054 11.8094 4.2923 11.8504 4.28794 11.8909C4.24596 12.3103 4.21875 12.7316 4.21875 13.1535C4.21875 13.5754 4.2461 13.9981 4.28829 14.4168ZM3.37964 26.9997C3.4412 26.8947 3.52967 26.8074 3.6362 26.7467C3.74274 26.686 3.86361 26.6538 3.98672 26.6535C4.10276 26.6543 4.21662 26.6847 4.31719 26.7417C4.33828 26.7526 4.35832 26.7625 4.37977 26.7712L4.3811 26.7722L10.4297 30.2104C10.5093 30.2548 10.579 30.3145 10.6348 30.3859C10.6906 30.4574 10.7313 30.539 10.7545 30.6262C10.7905 30.7584 10.786 30.8982 10.7413 31.0278C10.6967 31.1575 10.614 31.2712 10.5037 31.3546C10.3934 31.438 10.2605 31.4874 10.1218 31.4964C9.98303 31.5054 9.84468 31.4737 9.72422 31.4054L3.63776 27.9455C3.55779 27.9007 3.48761 27.8408 3.43127 27.7692C3.37494 27.6977 3.33357 27.6158 3.30954 27.5284C3.28507 27.4401 3.27867 27.3476 3.29071 27.2569C3.30274 27.1662 3.33297 27.0788 3.37964 26.9997ZM22.5 41.5381H12.6562V34.615H22.5V41.5381ZM30.7768 26.7712C30.7979 26.762 30.819 26.7523 30.8393 26.7414C30.9184 26.6976 31.0054 26.6696 31.0955 26.659C31.1855 26.6484 31.2768 26.6555 31.3641 26.6797C31.4514 26.704 31.5329 26.745 31.6041 26.8003C31.6752 26.8557 31.7345 26.9244 31.7786 27.0024C31.8246 27.0813 31.8542 27.1684 31.8659 27.2586C31.8776 27.3488 31.871 27.4404 31.8466 27.5281C31.8229 27.615 31.7819 27.6965 31.726 27.7678C31.6701 27.839 31.6005 27.8988 31.5212 27.9435L25.4341 31.404C25.3137 31.4728 25.1752 31.5048 25.0363 31.4961C24.8974 31.4874 24.7642 31.4382 24.6536 31.3549C24.5431 31.2715 24.4602 31.1577 24.4154 31.028C24.3706 30.8982 24.366 30.7582 24.402 30.6258C24.4254 30.5383 24.4664 30.4564 24.5225 30.3848C24.5787 30.3132 24.6488 30.2534 24.7288 30.209L30.7768 26.7712ZM28.125 26.3073C28.3234 26.3073 28.5217 26.3189 28.7187 26.342L24.0278 29.0087C23.7867 29.1438 23.5754 29.3249 23.4063 29.5415C23.2373 29.7581 23.1139 30.0058 23.0434 30.27C22.9542 30.6014 22.9493 30.9494 23.0292 31.2831C23.1091 31.6169 23.2713 31.9261 23.5015 32.1834C23.5067 32.1891 23.5131 32.1932 23.5183 32.1989C23.7892 32.497 24.1428 32.7105 24.5355 32.8131C24.5599 32.8195 24.585 32.8171 24.6096 32.8227C24.74 32.8521 24.873 32.8692 25.0068 32.874C25.0312 32.8748 25.0556 32.8834 25.08 32.8834C25.1163 32.8834 25.1513 32.8713 25.1875 32.8695C25.2293 32.8675 25.2709 32.871 25.3128 32.8665V39.4612C25.3128 39.6448 25.3869 39.8209 25.5187 39.9507C25.6506 40.0806 25.8294 40.1535 26.0159 40.1535C26.2024 40.1535 26.3812 40.0806 26.5131 39.9507C26.645 39.8209 26.719 39.6448 26.719 39.4612V32.2729L32.2273 29.1415C32.3265 29.0847 32.4208 29.0201 32.5095 28.9484C32.8651 29.6306 33.0493 30.3868 33.0469 31.1535V41.5381H23.9062V33.9227C23.9062 33.7391 23.8322 33.563 23.7003 33.4332C23.5684 33.3034 23.3896 33.2304 23.2031 33.2304H11.9531C11.7666 33.2304 11.5878 33.3034 11.4559 33.4332C11.3241 33.563 11.25 33.7391 11.25 33.9227V41.5381H2.10938V31.1535C2.10706 30.3866 2.29141 29.6304 2.64698 28.9482C2.73658 29.0205 2.83187 29.0857 2.93196 29.1432L8.4375 32.2728V39.4612C8.4375 39.6448 8.51158 39.8209 8.64344 39.9507C8.7753 40.0806 8.95414 40.1535 9.14062 40.1535C9.32711 40.1535 9.50595 40.0806 9.63781 39.9507C9.76967 39.8209 9.84375 39.6448 9.84375 39.4612V32.8674C9.88685 32.872 9.92974 32.8685 9.97284 32.8705C10.008 32.8722 10.0415 32.8839 10.0766 32.8839C10.1002 32.8839 10.1237 32.8755 10.1474 32.8748C10.2863 32.8703 10.4244 32.8524 10.5597 32.8212C10.5801 32.8165 10.6008 32.8186 10.6211 32.8133C11.0126 32.7109 11.3653 32.4982 11.6359 32.2013C11.6417 32.195 11.649 32.1904 11.6547 32.1839C12.0245 31.7707 12.2134 31.2304 12.1802 30.6807V30.6737C12.1712 30.5374 12.1486 30.4023 12.1129 30.2703C12.0425 30.0065 11.9194 29.7591 11.7506 29.5428C11.5819 29.3264 11.371 29.1454 11.1303 29.0103L6.43767 26.3428C6.63464 26.3193 6.83285 26.3075 7.03125 26.3073H28.125ZM8.4375 23.8843C8.43758 23.6084 8.54841 23.3438 8.74582 23.148C8.85855 23.0383 8.99456 22.9544 9.14407 22.9026C9.25647 22.8662 9.37388 22.847 9.49219 22.8458H25.6641C25.7797 22.8473 25.8945 22.866 26.0045 22.9012C26.2418 22.9799 26.4429 23.1391 26.5718 23.3505C26.7007 23.5618 26.749 23.8114 26.708 24.0546C26.6671 24.2978 26.5395 24.5187 26.3483 24.6778C26.157 24.8368 25.9144 24.9237 25.6641 24.9227H9.49219C9.21256 24.9224 8.94448 24.8129 8.74676 24.6182C8.54904 24.4235 8.43782 24.1596 8.4375 23.8843ZM29.477 14.2214C29.461 14.3885 29.4344 14.5537 29.4109 14.7193C29.0643 17.2815 27.8698 19.6597 26.0122 21.4862C25.8969 21.4697 25.7806 21.4613 25.6641 21.4612H9.49219C9.37569 21.4613 9.25935 21.4697 9.14407 21.4862C7.36684 19.7667 6.19418 17.533 5.79719 15.1111C5.68236 14.4647 5.62474 13.8097 5.625 13.1535C5.625 12.8249 5.63941 12.4965 5.66824 12.1683C5.697 11.8416 5.74003 11.5167 5.79734 11.1959L5.79804 11.1907C6.2714 8.4224 7.73507 5.91217 9.92444 4.11385C12.1138 2.31554 14.8844 1.34783 17.7353 1.38567C20.5862 1.42351 23.3293 2.46441 25.4686 4.32017C27.608 6.17594 29.0024 8.72411 29.3998 11.504C29.4279 11.6945 29.4573 11.8848 29.4758 12.0774C29.5087 12.4322 29.5312 12.7902 29.5312 13.1535C29.5312 13.5115 29.5102 13.8674 29.477 14.2214ZM33.75 13.8458C33.7498 14.0294 33.6757 14.2054 33.5439 14.3352C33.412 14.465 33.2333 14.5379 33.0469 14.5381H30.8613V14.536C30.9115 14.0768 30.937 13.6153 30.9375 13.1535C30.9369 12.691 30.9117 12.2288 30.8619 11.7689H33.0469C33.2333 11.769 33.412 11.842 33.5439 11.9718C33.6757 12.1016 33.7498 12.2776 33.75 12.4612V13.8458Z" fill="white"/>
</svg>
