<svg width="58" height="58" viewBox="0 0 58 58" fill="none" xmlns="http://www.w3.org/2000/svg">
<g filter="url(#filter0_d_372_365)">
<path d="M52.4639 17.8459L30.2417 3.99636C29.8667 3.76265 29.4458 3.63281 29 3.63281C28.5542 3.63281 28.1333 3.76265 27.7583 3.99636L5.53611 17.8459C4.625 18.4137 4 19.5892 4 20.9447C4 22.3003 4.625 23.4757 5.53611 24.0436L6.77778 24.8174V37.0067C5.95 37.6057 5.38889 38.7102 5.38889 39.9878C5.38889 41.9008 6.63333 43.4502 8.16667 43.4502C9.7 43.4502 10.9444 41.9008 10.9444 39.9878C10.9444 38.7102 10.3833 37.6057 9.55556 37.005V26.5469L13.7222 29.1437V39.9878C13.7222 46.6806 20.5625 52.1062 29 52.1062C37.4375 52.1062 44.2778 46.6806 44.2778 39.9878V29.1454L52.4639 24.0436C53.375 23.4757 54 22.3003 54 20.9447C54 19.5892 53.375 18.4137 52.4639 17.8459ZM40.1111 39.9878C40.1111 43.1905 35.2583 46.9126 29 46.9126C22.7417 46.9126 17.8889 43.1905 17.8889 39.9878V31.7404L27.7583 37.8931C28.1333 38.1268 28.5542 38.2567 29 38.2567C29.4458 38.2567 29.8667 38.1268 30.2417 37.8931L40.1111 31.7404V39.9878ZM29 32.8605L9.88056 20.9447L29 9.02894L48.1194 20.9447L29 32.8605Z" fill="white"/>
</g>
<defs>
<filter id="filter0_d_372_365" x="0" y="0.632812" width="58" height="56.4734" filterUnits="userSpaceOnUse" color-interpolation-filters="sRGB">
<feFlood flood-opacity="0" result="BackgroundImageFix"/>
<feColorMatrix in="SourceAlpha" type="matrix" values="0 0 0 0 0 0 0 0 0 0 0 0 0 0 0 0 0 0 127 0" result="hardAlpha"/>
<feOffset dy="1"/>
<feGaussianBlur stdDeviation="2"/>
<feComposite in2="hardAlpha" operator="out"/>
<feColorMatrix type="matrix" values="0 0 0 0 1 0 0 0 0 1 0 0 0 0 1 0 0 0 0.25 0"/>
<feBlend mode="normal" in2="BackgroundImageFix" result="effect1_dropShadow_372_365"/>
<feBlend mode="normal" in="SourceGraphic" in2="effect1_dropShadow_372_365" result="shape"/>
</filter>
</defs>
</svg>
