<svg width="34" height="34" viewBox="0 0 34 34" fill="none" xmlns="http://www.w3.org/2000/svg">
<g filter="url(#filter0_d_421_1388)">
<path d="M14.0748 2C8.51118 2 4 6.52476 4 12.1052C4 17.6857 8.51118 22.2105 14.0749 22.2105C16.2144 22.2105 18.1985 21.5411 19.8294 20.401L27.3026 27.8944C27.4413 28.0334 27.6617 28.037 27.804 27.8944L29.8178 25.8745C29.9565 25.7354 29.9493 25.5048 29.8166 25.3716L22.3457 17.8783C23.4824 16.2412 24.1497 14.2511 24.1497 12.1052C24.1497 6.52476 19.6386 2 14.0748 2ZM14.0748 19.8327C9.81968 19.8327 6.37053 16.3732 6.37053 12.1052C6.37053 7.83725 9.81972 4.37771 14.0748 4.37771C18.33 4.37771 21.7792 7.83725 21.7792 12.1052C21.7792 16.3732 18.33 19.8327 14.0748 19.8327Z" fill="white"/>
</g>
<defs>
<filter id="filter0_d_421_1388" x="0" y="0" width="33.9189" height="34" filterUnits="userSpaceOnUse" color-interpolation-filters="sRGB">
<feFlood flood-opacity="0" result="BackgroundImageFix"/>
<feColorMatrix in="SourceAlpha" type="matrix" values="0 0 0 0 0 0 0 0 0 0 0 0 0 0 0 0 0 0 127 0" result="hardAlpha"/>
<feOffset dy="2"/>
<feGaussianBlur stdDeviation="2"/>
<feComposite in2="hardAlpha" operator="out"/>
<feColorMatrix type="matrix" values="0 0 0 0 1 0 0 0 0 1 0 0 0 0 1 0 0 0 0.25 0"/>
<feBlend mode="normal" in2="BackgroundImageFix" result="effect1_dropShadow_421_1388"/>
<feBlend mode="normal" in="SourceGraphic" in2="effect1_dropShadow_421_1388" result="shape"/>
</filter>
</defs>
</svg>
