<svg width="449" height="70" viewBox="0 0 449 70" fill="none" xmlns="http://www.w3.org/2000/svg">
<g filter="url(#filter0_d_320_3026)">
<path d="M219.78 1H439C441.761 1 444 3.23858 444 6V22.7769C444 24.8403 442.732 26.6918 440.809 27.4383L355.184 60.6614C354.608 60.8852 353.994 61 353.376 61H182.016H10C7.23858 61 5 58.7614 5 56V6C5 3.23858 7.23858 1 10 1H219.78Z" fill="black" fill-opacity="0.5" shape-rendering="crispEdges"/>
<path d="M219.78 1H439C441.761 1 444 3.23858 444 6V22.7769C444 24.8403 442.732 26.6918 440.809 27.4383L355.184 60.6614C354.608 60.8852 353.994 61 353.376 61H182.016H10C7.23858 61 5 58.7614 5 56V6C5 3.23858 7.23858 1 10 1H219.78Z" stroke="#00FFFD" shape-rendering="crispEdges"/>
</g>
<defs>
<filter id="filter0_d_320_3026" x="0.5" y="0.5" width="448" height="69" filterUnits="userSpaceOnUse" color-interpolation-filters="sRGB">
<feFlood flood-opacity="0" result="BackgroundImageFix"/>
<feColorMatrix in="SourceAlpha" type="matrix" values="0 0 0 0 0 0 0 0 0 0 0 0 0 0 0 0 0 0 127 0" result="hardAlpha"/>
<feOffset dy="4"/>
<feGaussianBlur stdDeviation="2"/>
<feComposite in2="hardAlpha" operator="out"/>
<feColorMatrix type="matrix" values="0 0 0 0 0 0 0 0 0 0 0 0 0 0 0 0 0 0 0.25 0"/>
<feBlend mode="normal" in2="BackgroundImageFix" result="effect1_dropShadow_320_3026"/>
<feBlend mode="normal" in="SourceGraphic" in2="effect1_dropShadow_320_3026" result="shape"/>
</filter>
</defs>
</svg>
