<svg width="43" height="46" viewBox="0 0 43 46" fill="none" xmlns="http://www.w3.org/2000/svg">
<g clip-path="url(#clip0_177_903)" filter="url(#filter0_d_177_903)">
<path d="M32.2805 28.2461C30.2646 28.2461 28.4587 29.2121 27.3247 30.682L17.1193 24.7603C17.7493 23.2064 17.7493 21.4845 17.1193 19.9306L27.3247 14.0089C28.4587 15.4788 30.2646 16.4448 32.2805 16.4448C35.7663 16.4448 38.5801 13.6309 38.5801 10.1451C38.5801 6.65931 35.7663 3.84546 32.2805 3.84546C28.7947 3.84546 25.9808 6.65931 25.9808 10.1451C25.9808 10.9851 26.1488 11.825 26.4428 12.539L16.2373 18.5027C15.0614 17.0327 13.2975 16.0668 11.2816 16.0668C7.79578 16.0668 4.98193 18.8806 4.98193 22.3665C4.98193 25.8523 7.79578 28.6661 11.2816 28.6661C13.2975 28.6661 15.1034 27.7002 16.2373 26.2302L26.4428 32.1519C26.1488 32.8659 25.9808 33.7058 25.9808 34.5458C25.9808 38.0316 28.7947 40.8455 32.2805 40.8455C35.7663 40.8455 38.5801 38.0316 38.5801 34.5458C38.5801 31.06 35.7663 28.2461 32.2805 28.2461ZM32.2805 5.56737C34.8423 5.56737 36.9002 7.62525 36.9002 10.1871C36.9002 12.749 34.8423 14.8069 32.2805 14.8069C29.7186 14.8069 27.6607 12.749 27.6607 10.1871C27.6607 7.62525 29.7186 5.56737 32.2805 5.56737ZM11.2816 26.9862C8.71973 26.9862 6.66184 24.9283 6.66184 22.3665C6.66184 19.8046 8.71973 17.7467 11.2816 17.7467C13.8435 17.7467 15.9013 19.8046 15.9013 22.3665C15.9013 24.9283 13.8435 26.9862 11.2816 26.9862ZM32.2805 39.1656C29.7186 39.1656 27.6607 37.1077 27.6607 34.5458C27.6607 31.9839 29.7186 29.926 32.2805 29.926C34.8423 29.926 36.9002 31.9839 36.9002 34.5458C36.9002 37.1077 34.8423 39.1656 32.2805 39.1656Z" fill="white"/>
</g>
<defs>
<filter id="filter0_d_177_903" x="-0.71875" y="0.845459" width="45" height="45" filterUnits="userSpaceOnUse" color-interpolation-filters="sRGB">
<feFlood flood-opacity="0" result="BackgroundImageFix"/>
<feColorMatrix in="SourceAlpha" type="matrix" values="0 0 0 0 0 0 0 0 0 0 0 0 0 0 0 0 0 0 127 0" result="hardAlpha"/>
<feOffset dy="1"/>
<feGaussianBlur stdDeviation="2"/>
<feComposite in2="hardAlpha" operator="out"/>
<feColorMatrix type="matrix" values="0 0 0 0 1 0 0 0 0 1 0 0 0 0 1 0 0 0 0.25 0"/>
<feBlend mode="normal" in2="BackgroundImageFix" result="effect1_dropShadow_177_903"/>
<feBlend mode="normal" in="SourceGraphic" in2="effect1_dropShadow_177_903" result="shape"/>
</filter>
<clipPath id="clip0_177_903">
<rect width="37" height="37" fill="white" transform="translate(3.28125 3.84546)"/>
</clipPath>
</defs>
</svg>
