<svg width="49" height="51" viewBox="0 0 49 51" fill="none" xmlns="http://www.w3.org/2000/svg">
<g filter="url(#filter0_d_454_732)">
<path d="M10.4945 42.8964C9.86467 42.8956 9.2511 42.7069 8.74092 42.3573C8.30122 42.0416 7.95549 41.6233 7.73746 41.1434C7.51943 40.6635 7.43655 40.1382 7.49691 39.6189L8.59104 27.9987L0.752261 19.2587C0.398132 18.86 0.158352 18.3816 0.0559812 17.8698C-0.0463901 17.3579 -0.00790855 16.8297 0.167725 16.336C0.329571 15.8548 0.620357 15.4215 1.01174 15.0783C1.40312 14.7352 1.88174 14.4939 2.40095 14.378L13.8219 11.8241L19.8171 1.89227C20.0837 1.44023 20.4729 1.06373 20.9445 0.801635C21.4161 0.539545 21.9531 0.401367 22.5 0.401367C23.0469 0.401367 23.5839 0.539545 24.0555 0.801635C24.5271 1.06373 24.9163 1.44023 25.1829 1.89227L31.1781 11.895L42.5991 14.4489C43.1183 14.5648 43.5969 14.8061 43.9883 15.1493C44.3796 15.4924 44.6704 15.9257 44.8323 16.4069C45.0079 16.9006 45.0464 17.4288 44.944 17.9407C44.8417 18.4526 44.6019 18.9309 44.2477 19.3297L36.4539 27.9987L37.5481 39.6189C37.6001 40.1447 37.5057 40.6741 37.2743 41.1546C37.0429 41.635 36.6825 42.0497 36.2291 42.3573C35.8004 42.6508 35.2972 42.8317 34.7707 42.8815C34.2442 42.9314 33.7131 42.8484 33.2315 42.6411L22.485 38.044L11.7535 42.6411C11.3584 42.8115 10.9288 42.8986 10.4945 42.8964ZM22.56 3.16922L16.1151 13.7111C16.0133 13.881 15.8756 14.0292 15.7105 14.1464C15.5455 14.2636 15.3566 14.3473 15.1558 14.3922L3.16535 17.0737C3.07542 17.2156 3.06043 17.3008 3.16535 17.3717L11.3339 26.5799C11.4604 26.7227 11.5559 26.8876 11.615 27.0653C11.6742 27.243 11.6958 27.43 11.6786 27.6157L10.5245 39.8176C10.3896 40.0588 10.4945 40.0588 10.4945 40.0588L21.8555 35.2064C22.0487 35.1242 22.2582 35.0817 22.47 35.0817C22.6819 35.0817 22.8913 35.1242 23.0845 35.2064L34.4755 40.0588C34.4755 40.0588 34.6104 40.0588 34.5954 39.8743L33.4413 27.6724C33.4241 27.4868 33.4457 27.2998 33.5049 27.1221C33.564 26.9444 33.6596 26.7794 33.786 26.6367L41.9696 17.4285C41.9866 17.3978 41.9955 17.3638 41.9955 17.3291C41.9955 17.2945 41.9866 17.2604 41.9696 17.2298L29.8292 14.3922C29.6284 14.3473 29.4395 14.2636 29.2745 14.1464C29.1094 14.0292 28.9717 13.881 28.8699 13.7111L22.56 3.16922Z" fill="white"/>
</g>
<defs>
<filter id="filter0_d_454_732" x="-4" y="0.401367" width="53" height="50.4951" filterUnits="userSpaceOnUse" color-interpolation-filters="sRGB">
<feFlood flood-opacity="0" result="BackgroundImageFix"/>
<feColorMatrix in="SourceAlpha" type="matrix" values="0 0 0 0 0 0 0 0 0 0 0 0 0 0 0 0 0 0 127 0" result="hardAlpha"/>
<feOffset dy="4"/>
<feGaussianBlur stdDeviation="2"/>
<feComposite in2="hardAlpha" operator="out"/>
<feColorMatrix type="matrix" values="0 0 0 0 1 0 0 0 0 1 0 0 0 0 1 0 0 0 0.25 0"/>
<feBlend mode="normal" in2="BackgroundImageFix" result="effect1_dropShadow_454_732"/>
<feBlend mode="normal" in="SourceGraphic" in2="effect1_dropShadow_454_732" result="shape"/>
</filter>
</defs>
</svg>
